<svg xmlns="http://www.w3.org/2000/svg" version="1.1" xmlns:xlink="http://www.w3.org/1999/xlink" xmlns:svgjs="http://svgjs.dev/svgjs" width="1920" height="1080" preserveAspectRatio="none" viewBox="0 0 1920 1080"><g mask="url(&quot;#SvgjsMask1015&quot;)" fill="none"><path d="M43.68 270C28.23 135.64 -35.29 70.73 24 0C77.87 -64.27 147 0 270 0C405 0 405 0 540 0C675 0 675 0 810 0C810 0 810 0 810 0C945 50.34 953.54 100.68 1080 100.68C1149.15 100.68 1131.78 25.89 1201.22 0C1266.78 -24.45 1275.61 0 1350 0C1451.25 0 1454.47 -12.98 1552.5 0C1589.47 4.89 1589.57 35.74 1620 35.74C1638.89 35.74 1628.79 2.96 1651.15 0C1763.79 -14.91 1770.57 0 1890 0C2025 0 2092.5 -67.5 2160 0C2227.5 67.5 2160 135 2160 270C2160 372.27 2192.22 389.97 2160 474.55C2140.79 524.97 2057.14 504.37 2057.14 540C2057.14 578.64 2138.69 567.15 2160 623.08C2190.12 702.15 2160 716.54 2160 810C2160 895.26 2194.03 912.46 2160 980.53C2126.53 1047.46 2099.79 1052.45 2025 1080C1964.79 1102.18 1957.5 1080 1890 1080C1788.75 1080 1781.79 1099.41 1687.5 1080C1646.79 1071.62 1653.05 1024.41 1620 1024.41C1588.82 1024.41 1597.24 1072.13 1559.03 1080C1462.24 1099.93 1454.51 1080 1350 1080C1264.74 1080 1179.47 1109.66 1179.47 1080C1179.47 1042.16 1269.67 1017.88 1350 945C1418.47 882.88 1477.06 883.71 1477.06 810C1477.06 714.96 1442.42 666.15 1350 607.5C1243.89 540.15 1209.54 539.82 1080 558C939.54 577.71 936.91 688.35 810 683.27C711.91 679.35 658.35 634.01 630 540C596.04 427.37 714.04 374.98 685.38 270C669.04 210.14 608.21 210.32 540 210.32C499.18 210.32 474.86 227.46 467.31 270C445.61 392.3 461.24 407.18 481.5 540C497.58 645.42 503.51 646.46 540 746.47C552.76 781.46 559.93 778.28 580 810C665.47 945.05 763.14 998.69 751.09 1080C743.14 1133.69 645.55 1080 540 1080C405 1080 405 1080 270 1080C137.04 1080 136.13 1082.13 4.09 1080C1.13 1079.95 0.04 1078.62 0 1075.65C-2 943.62 0 942.83 0 810C0 710.79 -27.52 697.88 0 611.57C15.53 562.88 79.74 589.63 86.09 540C101.58 418.84 59.28 405.64 43.68 270" stroke="rgba(255, 205, 205, 1)" stroke-width="2"></path><path d="M1890 241.95C1873.39 241.95 1857.76 252.83 1857.76 270C1857.76 298.62 1872.92 333.53 1890 333.53C1907.66 333.53 1927.24 298.04 1927.24 270C1927.24 252.25 1908.13 241.95 1890 241.95" stroke="rgba(255, 205, 205, 1)" stroke-width="2"></path><path d="M1890 696C1836.77 696 1778.48 751.36 1778.48 810C1778.48 872.49 1837.03 938.25 1890 938.25C1939.42 938.25 1983.27 872.8 1983.27 810C1983.27 751.67 1939.16 696 1890 696" stroke="rgba(255, 205, 205, 1)" stroke-width="2"></path><path d="M142.94 270C140.47 135.32 127.05 99.76 174 0C190.58 -35.24 222 0 270 0C405 0 405 0 540 0C629.39 0 718.78 -30.71 718.78 0C718.78 38.92 628.52 68.55 540 139.26C459.52 203.55 417.75 183.33 380.77 270C332.25 383.7 354.73 407.12 369 540C383.72 677.12 386.47 683 438.75 810C471.97 890.69 489.09 882.89 540 955.38C583.9 1017.89 628.36 1040.52 628.36 1080C628.36 1102.83 584.18 1080 540 1080C405 1080 405 1080 270 1080C188.18 1080 175.61 1109.04 106.36 1080C40.61 1052.43 26.47 1033.96 0 966.77C-26.71 898.96 0 888.38 0 810C0 751.44 -30.23 737.27 0 692.89C61.73 602.27 150.54 638.72 183.91 540C222.01 427.27 145.42 405.32 142.94 270" stroke="rgba(255, 205, 205, 1)" stroke-width="2"></path><path d="M909.47 270C909.47 235.1 998.17 215.08 1080 215.08C1127.22 215.08 1167.57 237.28 1167.57 270C1167.57 309.74 1130.9 360 1080 360C1001.85 360 909.47 307.56 909.47 270" stroke="rgba(255, 205, 205, 1)" stroke-width="2"></path><path d="M1350 20C1343.79 20 1338.98 6.74 1338.98 0C1338.98 -3.26 1344.49 0 1350 0C1357.5 0 1365 -3.75 1365 0C1365 6.25 1356.8 20 1350 20" stroke="rgba(255, 205, 205, 1)" stroke-width="2"></path><path d="M1464.41 270C1470.21 187.31 1546.91 207.21 1620 135C1683.55 72.21 1664.73 36.48 1737.69 0C1799.73 -31.02 1813.85 0 1890 0C2025 0 2092.5 -67.5 2160 0C2227.5 67.5 2160 135 2160 270C2160 321.13 2183.14 372.27 2160 372.27C2124.95 372.27 2103.85 318.63 2043.62 270C1968.85 209.64 1964.77 154.29 1890 154.29C1821.47 154.29 1757.01 199.18 1757.01 270C1757.01 388.06 1822.63 401.6 1890 532.06C1892.34 536.6 1896.43 536.25 1896.43 540C1896.43 543.22 1893.08 542.86 1890 546C1760.73 677.86 1759.89 677.16 1631.74 810C1624.89 817.1 1625.68 825.88 1620 825.88C1614.51 825.88 1610.35 819.42 1609.41 810C1596.14 676.48 1626.06 668.39 1591.58 540C1553.56 398.39 1456 389.81 1464.41 270" stroke="rgba(255, 205, 205, 1)" stroke-width="2"></path><path d="M803.08 540C803.08 524.38 805.63 506.25 810 506.25C814.49 506.25 820.8 525.37 820.8 540C820.8 545 815.12 545.51 810 545.51C806.26 545.51 803.08 544.01 803.08 540" stroke="rgba(255, 205, 205, 1)" stroke-width="2"></path><path d="M2106 810C2106 782.06 2144.36 752.88 2160 752.88C2171.36 752.88 2160 781.44 2160 810C2160 836.06 2171.07 862.11 2160 862.11C2144.07 862.11 2106 836.67 2106 810" stroke="rgba(255, 205, 205, 1)" stroke-width="2"></path><path d="M242.21 270C242.21 210.35 256.95 151.88 270 151.88C282.96 151.88 294.23 210.49 294.23 270C294.23 364.05 282.99 459 270 459C256.98 459 242.21 363.91 242.21 270" stroke="rgba(255, 205, 205, 1)" stroke-width="2"></path><path d="M540 68.21C447.45 68.21 343.64 17.54 343.64 0C343.64 -16.57 441.82 0 540 0C583.79 0 627.57 -15.04 627.57 0C627.57 19.06 589.42 68.21 540 68.21" stroke="rgba(255, 205, 205, 1)" stroke-width="2"></path><path d="M1578.81 270C1578.81 248.39 1599.97 234.26 1620 234.26C1638.7 234.26 1656.27 248.95 1656.27 270C1656.27 304.79 1639.11 345.94 1620 345.94C1600.38 345.94 1578.81 304.23 1578.81 270" stroke="rgba(255, 205, 205, 1)" stroke-width="2"></path><path d="M1890 66.62C1853.59 37.34 1824.23 19.56 1824.23 0C1824.23 -13.75 1857.11 0 1890 0C2025 0 2092.5 -67.5 2160 0C2227.5 67.5 2219.95 255.21 2160 270C2084.95 288.52 2021.47 172.34 1890 66.62" stroke="rgba(255, 205, 205, 1)" stroke-width="2"></path><path d="M0 774.22C121.43 680.82 174.51 591.57 270 602.31C333.61 609.46 280.14 711.21 318.21 810C372.18 950.05 469.07 996.1 454.09 1080C444.97 1131.1 362.04 1080 270 1080C239.32 1080 231.27 1098.61 208.64 1080C96.27 987.56 90.15 974.56 0 857.9C-14.17 839.56 0 833.95 0 810C0 792.11 -13.57 784.66 0 774.22" stroke="rgba(255, 205, 205, 1)" stroke-width="2"></path></g><defs><mask id="SvgjsMask1015"><rect width="1920" height="1080" fill="#ffffff"></rect></mask></defs></svg>