<svg xmlns="http://www.w3.org/2000/svg" version="1.1" xmlns:xlink="http://www.w3.org/1999/xlink" xmlns:svgjs="http://svgjs.dev/svgjs" width="1920" height="1080" preserveAspectRatio="none" viewBox="0 0 1920 1080"><g mask="url(&quot;#SvgjsMask2189&quot;)" fill="none"><path d="M59.04 358.5L180.29 428.5L180.29 568.5L59.04 638.5L-62.21 568.5L-62.21 428.5zM59.04 778.5L180.29 848.5L180.29 988.5L59.04 1058.5L-62.21 988.5L-62.21 848.5zM180.29 988.5L301.53 1058.5L301.53 1198.5L180.29 1268.5L59.04 1198.5L59.04 1058.5zM544.03 -61.5L665.27 8.5L665.27 148.5L544.03 218.5L422.78 148.5L422.78 8.5zM665.27 148.5L786.52 218.5L786.52 358.5L665.27 428.5L544.03 358.5L544.03 218.5zM907.77 988.5L1029.02 1058.5L1029.02 1198.5L907.77 1268.5L786.52 1198.5L786.52 1058.5zM1029.02 -61.5L1150.26 8.5L1150.26 148.5L1029.02 218.5L907.77 148.5L907.77 8.5zM1029.02 358.5L1150.26 428.5L1150.26 568.5L1029.02 638.5L907.77 568.5L907.77 428.5zM1150.26 568.5L1271.51 638.5L1271.51 778.5L1150.26 848.5L1029.02 778.5L1029.02 638.5zM1029.02 778.5L1150.26 848.5L1150.26 988.5L1029.02 1058.5L907.77 988.5L907.77 848.5zM1514 778.5L1635.25 848.5L1635.25 988.5L1514 1058.5L1392.76 988.5L1392.76 848.5zM1756.5 778.5L1877.75 848.5L1877.75 988.5L1756.5 1058.5L1635.25 988.5L1635.25 848.5z" stroke="rgba(0, 0, 0, 0)" stroke-width="2"></path><path d="M66.65 -70.69L139.4 -28.69L139.4 55.31L66.65 97.31L-6.1 55.31L-6.1 -28.69zM139.4 559.31L212.15 601.31L212.15 685.31L139.4 727.31L66.65 685.31L66.65 601.31zM212.15 -70.69L284.89 -28.69L284.89 55.31L212.15 97.31L139.4 55.31L139.4 -28.69zM212.15 433.31L284.89 475.31L284.89 559.31L212.15 601.31L139.4 559.31L139.4 475.31zM212.15 937.31L284.89 979.31L284.89 1063.31L212.15 1105.31L139.4 1063.31L139.4 979.31zM357.64 -70.69L430.39 -28.69L430.39 55.31L357.64 97.31L284.89 55.31L284.89 -28.69zM430.39 307.31L503.14 349.31L503.14 433.31L430.39 475.31L357.64 433.31L357.64 349.31zM357.64 433.31L430.39 475.31L430.39 559.31L357.64 601.31L284.89 559.31L284.89 475.31zM430.39 559.31L503.14 601.31L503.14 685.31L430.39 727.31L357.64 685.31L357.64 601.31zM430.39 1063.31L503.14 1105.31L503.14 1189.31L430.39 1231.31L357.64 1189.31L357.64 1105.31zM503.14 -70.69L575.89 -28.69L575.89 55.31L503.14 97.31L430.39 55.31L430.39 -28.69zM575.89 55.31L648.64 97.31L648.64 181.31L575.89 223.31L503.14 181.31L503.14 97.31zM503.14 685.31L575.89 727.31L575.89 811.31L503.14 853.31L430.39 811.31L430.39 727.31zM575.89 811.31L648.64 853.31L648.64 937.31L575.89 979.31L503.14 937.31L503.14 853.31zM648.64 433.31L721.38 475.31L721.38 559.31L648.64 601.31L575.89 559.31L575.89 475.31zM648.64 937.31L721.38 979.31L721.38 1063.31L648.64 1105.31L575.89 1063.31L575.89 979.31zM794.13 181.31L866.88 223.31L866.88 307.31L794.13 349.31L721.38 307.31L721.38 223.31zM866.88 307.31L939.63 349.31L939.63 433.31L866.88 475.31L794.13 433.31L794.13 349.31zM866.88 1063.31L939.63 1105.31L939.63 1189.31L866.88 1231.31L794.13 1189.31L794.13 1105.31zM1012.38 307.31L1085.12 349.31L1085.12 433.31L1012.38 475.31L939.63 433.31L939.63 349.31zM939.63 937.31L1012.38 979.31L1012.38 1063.31L939.63 1105.31L866.88 1063.31L866.88 979.31zM1085.12 -70.69L1157.87 -28.69L1157.87 55.31L1085.12 97.31L1012.38 55.31L1012.38 -28.69zM1157.87 307.31L1230.62 349.31L1230.62 433.31L1157.87 475.31L1085.12 433.31L1085.12 349.31zM1157.87 559.31L1230.62 601.31L1230.62 685.31L1157.87 727.31L1085.12 685.31L1085.12 601.31zM1303.37 55.31L1376.12 97.31L1376.12 181.31L1303.37 223.31L1230.62 181.31L1230.62 97.31zM1303.37 307.31L1376.12 349.31L1376.12 433.31L1303.37 475.31L1230.62 433.31L1230.62 349.31zM1303.37 811.31L1376.12 853.31L1376.12 937.31L1303.37 979.31L1230.62 937.31L1230.62 853.31zM1230.62 937.31L1303.37 979.31L1303.37 1063.31L1230.62 1105.31L1157.87 1063.31L1157.87 979.31zM1376.12 181.31L1448.87 223.31L1448.87 307.31L1376.12 349.31L1303.37 307.31L1303.37 223.31zM1376.12 937.31L1448.87 979.31L1448.87 1063.31L1376.12 1105.31L1303.37 1063.31L1303.37 979.31zM1594.36 559.31L1667.11 601.31L1667.11 685.31L1594.36 727.31L1521.61 685.31L1521.61 601.31zM1594.36 1063.31L1667.11 1105.31L1667.11 1189.31L1594.36 1231.31L1521.61 1189.31L1521.61 1105.31zM1739.86 559.31L1812.61 601.31L1812.61 685.31L1739.86 727.31L1667.11 685.31L1667.11 601.31zM1812.61 433.31L1885.36 475.31L1885.36 559.31L1812.61 601.31L1739.86 559.31L1739.86 475.31zM1885.36 811.31L1958.1 853.31L1958.1 937.31L1885.36 979.31L1812.61 937.31L1812.61 853.31zM1958.1 -70.69L2030.85 -28.69L2030.85 55.31L1958.1 97.31L1885.36 55.31L1885.36 -28.69zM1958.1 433.31L2030.85 475.31L2030.85 559.31L1958.1 601.31L1885.36 559.31L1885.36 475.31zM2030.85 559.31L2103.6 601.31L2103.6 685.31L2030.85 727.31L1958.1 685.31L1958.1 601.31zM2030.85 811.31L2103.6 853.31L2103.6 937.31L2030.85 979.31L1958.1 937.31L1958.1 853.31z" stroke="rgba(255, 229, 229, 1)" stroke-width="2"></path></g><defs><mask id="SvgjsMask2189"><rect width="1920" height="1080" fill="#ffffff"></rect></mask></defs></svg>