<svg xmlns="http://www.w3.org/2000/svg" version="1.1" xmlns:xlink="http://www.w3.org/1999/xlink" xmlns:svgjs="http://svgjs.dev/svgjs" width="1920" height="1080" preserveAspectRatio="none" viewBox="0 0 1920 1080"><g mask="url(&quot;#SvgjsMask1039&quot;)" fill="none"><path d="M1014 918L446 350" stroke-width="8" stroke="url(&quot;#SvgjsLinearGradient1040&quot;)" stroke-linecap="round" class="BottomRight"></path><path d="M1834 904L1119 189" stroke-width="6" stroke="url(&quot;#SvgjsLinearGradient1040&quot;)" stroke-linecap="round" class="BottomRight"></path><path d="M1680 612L1990 922" stroke-width="6" stroke="url(&quot;#SvgjsLinearGradient1040&quot;)" stroke-linecap="round" class="BottomRight"></path><path d="M612 523L1009 920" stroke-width="10" stroke="url(&quot;#SvgjsLinearGradient1041&quot;)" stroke-linecap="round" class="TopLeft"></path><path d="M1248 967L2037 1756" stroke-width="10" stroke="url(&quot;#SvgjsLinearGradient1040&quot;)" stroke-linecap="round" class="BottomRight"></path><path d="M1057 458L1601 1002" stroke-width="6" stroke="url(&quot;#SvgjsLinearGradient1040&quot;)" stroke-linecap="round" class="BottomRight"></path><path d="M653 113L1206 666" stroke-width="8" stroke="url(&quot;#SvgjsLinearGradient1040&quot;)" stroke-linecap="round" class="BottomRight"></path><path d="M390 315L804 729" stroke-width="8" stroke="url(&quot;#SvgjsLinearGradient1040&quot;)" stroke-linecap="round" class="BottomRight"></path><path d="M403 158L1062 817" stroke-width="8" stroke="url(&quot;#SvgjsLinearGradient1040&quot;)" stroke-linecap="round" class="BottomRight"></path><path d="M1053 212L290 -551" stroke-width="8" stroke="url(&quot;#SvgjsLinearGradient1041&quot;)" stroke-linecap="round" class="TopLeft"></path><path d="M712 373L1001 662" stroke-width="8" stroke="url(&quot;#SvgjsLinearGradient1041&quot;)" stroke-linecap="round" class="TopLeft"></path><path d="M1518 749L2089 1320" stroke-width="10" stroke="url(&quot;#SvgjsLinearGradient1040&quot;)" stroke-linecap="round" class="BottomRight"></path><path d="M1596 761L2102 1267" stroke-width="6" stroke="url(&quot;#SvgjsLinearGradient1041&quot;)" stroke-linecap="round" class="TopLeft"></path><path d="M1461 285L948 -228" stroke-width="8" stroke="url(&quot;#SvgjsLinearGradient1041&quot;)" stroke-linecap="round" class="TopLeft"></path><path d="M19 507L647 1135" stroke-width="6" stroke="url(&quot;#SvgjsLinearGradient1040&quot;)" stroke-linecap="round" class="BottomRight"></path><path d="M65 114L430 479" stroke-width="8" stroke="url(&quot;#SvgjsLinearGradient1040&quot;)" stroke-linecap="round" class="BottomRight"></path><path d="M454 618L944 1108" stroke-width="10" stroke="url(&quot;#SvgjsLinearGradient1040&quot;)" stroke-linecap="round" class="BottomRight"></path><path d="M848 62L141 -645" stroke-width="6" stroke="url(&quot;#SvgjsLinearGradient1041&quot;)" stroke-linecap="round" class="TopLeft"></path><path d="M728 993L1045 1310" stroke-width="6" stroke="url(&quot;#SvgjsLinearGradient1041&quot;)" stroke-linecap="round" class="TopLeft"></path><path d="M563 414L179 30" stroke-width="6" stroke="url(&quot;#SvgjsLinearGradient1040&quot;)" stroke-linecap="round" class="BottomRight"></path><path d="M1500 855L2214 1569" stroke-width="6" stroke="url(&quot;#SvgjsLinearGradient1040&quot;)" stroke-linecap="round" class="BottomRight"></path><path d="M1441 963L1745 1267" stroke-width="10" stroke="url(&quot;#SvgjsLinearGradient1041&quot;)" stroke-linecap="round" class="TopLeft"></path><path d="M1867 632L2156 921" stroke-width="8" stroke="url(&quot;#SvgjsLinearGradient1041&quot;)" stroke-linecap="round" class="TopLeft"></path><path d="M1844 941L1489 586" stroke-width="10" stroke="url(&quot;#SvgjsLinearGradient1040&quot;)" stroke-linecap="round" class="BottomRight"></path><path d="M1790 1002L1341 553" stroke-width="8" stroke="url(&quot;#SvgjsLinearGradient1041&quot;)" stroke-linecap="round" class="TopLeft"></path><path d="M1699 850L2262 1413" stroke-width="6" stroke="url(&quot;#SvgjsLinearGradient1040&quot;)" stroke-linecap="round" class="BottomRight"></path><path d="M795 523L1109 837" stroke-width="8" stroke="url(&quot;#SvgjsLinearGradient1041&quot;)" stroke-linecap="round" class="TopLeft"></path><path d="M99 1029L-689 241" stroke-width="10" stroke="url(&quot;#SvgjsLinearGradient1041&quot;)" stroke-linecap="round" class="TopLeft"></path><path d="M560 502L30 -28" stroke-width="8" stroke="url(&quot;#SvgjsLinearGradient1040&quot;)" stroke-linecap="round" class="BottomRight"></path><path d="M937 81L629 -227" stroke-width="6" stroke="url(&quot;#SvgjsLinearGradient1041&quot;)" stroke-linecap="round" class="TopLeft"></path><path d="M1010 250L533 -227" stroke-width="6" stroke="url(&quot;#SvgjsLinearGradient1041&quot;)" stroke-linecap="round" class="TopLeft"></path><path d="M718 42L-42 -718" stroke-width="10" stroke="url(&quot;#SvgjsLinearGradient1041&quot;)" stroke-linecap="round" class="TopLeft"></path><path d="M578 862L-32 252" stroke-width="8" stroke="url(&quot;#SvgjsLinearGradient1040&quot;)" stroke-linecap="round" class="BottomRight"></path><path d="M1128 251L1867 990" stroke-width="6" stroke="url(&quot;#SvgjsLinearGradient1040&quot;)" stroke-linecap="round" class="BottomRight"></path><path d="M1507 552L807 -148" stroke-width="6" stroke="url(&quot;#SvgjsLinearGradient1040&quot;)" stroke-linecap="round" class="BottomRight"></path><path d="M1108 779L545 216" stroke-width="8" stroke="url(&quot;#SvgjsLinearGradient1040&quot;)" stroke-linecap="round" class="BottomRight"></path><path d="M1114 899L388 173" stroke-width="10" stroke="url(&quot;#SvgjsLinearGradient1040&quot;)" stroke-linecap="round" class="BottomRight"></path><path d="M1909 442L2648 1181" stroke-width="10" stroke="url(&quot;#SvgjsLinearGradient1040&quot;)" stroke-linecap="round" class="BottomRight"></path><path d="M879 1046L261 428" stroke-width="6" stroke="url(&quot;#SvgjsLinearGradient1040&quot;)" stroke-linecap="round" class="BottomRight"></path><path d="M1538 934L925 321" stroke-width="6" stroke="url(&quot;#SvgjsLinearGradient1041&quot;)" stroke-linecap="round" class="TopLeft"></path><path d="M1483 773L1147 437" stroke-width="10" stroke="url(&quot;#SvgjsLinearGradient1041&quot;)" stroke-linecap="round" class="TopLeft"></path><path d="M642 296L1114 768" stroke-width="10" stroke="url(&quot;#SvgjsLinearGradient1040&quot;)" stroke-linecap="round" class="BottomRight"></path><path d="M373 970L926 1523" stroke-width="8" stroke="url(&quot;#SvgjsLinearGradient1040&quot;)" stroke-linecap="round" class="BottomRight"></path><path d="M469 10L1258 799" stroke-width="8" stroke="url(&quot;#SvgjsLinearGradient1041&quot;)" stroke-linecap="round" class="TopLeft"></path><path d="M1189 261L1632 704" stroke-width="6" stroke="url(&quot;#SvgjsLinearGradient1040&quot;)" stroke-linecap="round" class="BottomRight"></path><path d="M203 628L720 1145" stroke-width="6" stroke="url(&quot;#SvgjsLinearGradient1040&quot;)" stroke-linecap="round" class="BottomRight"></path><path d="M761 859L1568 1666" stroke-width="6" stroke="url(&quot;#SvgjsLinearGradient1040&quot;)" stroke-linecap="round" class="BottomRight"></path><path d="M497 139L-17 -375" stroke-width="6" stroke="url(&quot;#SvgjsLinearGradient1041&quot;)" stroke-linecap="round" class="TopLeft"></path><path d="M375 67L843 535" stroke-width="10" stroke="url(&quot;#SvgjsLinearGradient1040&quot;)" stroke-linecap="round" class="BottomRight"></path><path d="M545 442L919 816" stroke-width="8" stroke="url(&quot;#SvgjsLinearGradient1041&quot;)" stroke-linecap="round" class="TopLeft"></path><path d="M1008 615L372 -21" stroke-width="10" stroke="url(&quot;#SvgjsLinearGradient1040&quot;)" stroke-linecap="round" class="BottomRight"></path><path d="M396 1074L692 1370" stroke-width="6" stroke="url(&quot;#SvgjsLinearGradient1040&quot;)" stroke-linecap="round" class="BottomRight"></path><path d="M1479 913L1146 580" stroke-width="6" stroke="url(&quot;#SvgjsLinearGradient1041&quot;)" stroke-linecap="round" class="TopLeft"></path><path d="M360 480L844 964" stroke-width="6" stroke="url(&quot;#SvgjsLinearGradient1041&quot;)" stroke-linecap="round" class="TopLeft"></path><path d="M151 12L934 795" stroke-width="10" stroke="url(&quot;#SvgjsLinearGradient1040&quot;)" stroke-linecap="round" class="BottomRight"></path><path d="M1684 222L1306 -156" stroke-width="10" stroke="url(&quot;#SvgjsLinearGradient1041&quot;)" stroke-linecap="round" class="TopLeft"></path></g><defs><mask id="SvgjsMask1039"><rect width="1920" height="1080" fill="#ffffff"></rect></mask><linearGradient x1="0%" y1="0%" x2="100%" y2="100%" id="SvgjsLinearGradient1040"><stop stop-color="rgba(255, 225, 225, 0)" offset="0"></stop><stop stop-color="rgba(255, 225, 225, 1)" offset="1"></stop></linearGradient><linearGradient x1="100%" y1="100%" x2="0%" y2="0%" id="SvgjsLinearGradient1041"><stop stop-color="rgba(255, 225, 225, 0)" offset="0"></stop><stop stop-color="rgba(255, 225, 225, 1)" offset="1"></stop></linearGradient></defs></svg>