<svg xmlns="http://www.w3.org/2000/svg" version="1.1" xmlns:xlink="http://www.w3.org/1999/xlink" xmlns:svgjs="http://svgjs.dev/svgjs" width="1920" height="1080" preserveAspectRatio="none" viewBox="0 0 1920 1080"><g mask="url(&quot;#SvgjsMask1101&quot;)" fill="none"><rect width="1920" height="1080" x="0" y="0" fill="rgba(255, 241, 241, 0.57)"></rect><path d="M0,735.957C135.086,757.052,268.745,665.164,365.202,568.266C452.93,480.137,473.839,350.732,503.648,230.008C528.609,128.918,540.783,27.427,524.122,-75.357C507.691,-176.723,467.89,-270.264,408.928,-354.338C344.778,-445.809,270.051,-529.634,170.275,-579.904C57.366,-636.791,-67.791,-674.409,-193.107,-657.663C-329.291,-639.465,-482.978,-598.409,-557.076,-482.709C-630.814,-367.571,-549.928,-217.022,-562.501,-80.875C-574.188,45.679,-683.496,172.458,-628.145,286.864C-572.663,401.54,-402.218,390.519,-298.587,464.61C-186.923,544.445,-135.624,714.778,0,735.957" fill="rgba(255, 216, 216, 0.57)"></path><path d="M1920 1779.25C2052.84 1775.589 2179.687 1729.879 2291.138 1657.502 2402.216 1585.367 2504.042 1492.094 2552.18 1368.7069999999999 2599.114 1248.403 2567.077 1117.387 2551.884 989.149 2536.293 857.552 2536.447 719.925 2462.302 610.092 2383.65 493.58299999999997 2269.732 380.812 2130.123 364.38699999999994 1992.779 348.22799999999995 1884.714 472.538 1757.681 527.192 1649.184 573.871 1524.005 581.419 1437.859 662.223 1347.0929999999998 747.361 1288.17 863.451 1268.234 986.29 1248.095 1110.383 1280.746 1233.979 1326.0349999999999 1351.255 1373.637 1474.521 1428.274 1601.077 1535.479 1678.326 1645.212 1757.397 1784.797 1782.976 1920 1779.25" fill="rgba(255, 255, 255, 0.57)"></path></g><defs><mask id="SvgjsMask1101"><rect width="1920" height="1080" fill="#ffffff"></rect></mask></defs></svg>